<?xml version="1.0" encoding="utf-8"?>
<!-- Generator: Adobe Illustrator 19.0.1, SVG Export Plug-In . SVG Version: 6.00 Build 0)  -->
<svg version="1.1" id="Слой_1" xmlns="http://www.w3.org/2000/svg" xmlns:xlink="http://www.w3.org/1999/xlink" x="0px" y="0px"
	 viewBox="0 0 499.7 95.6" style="enable-background:new 0 0 499.7 95.6;" xml:space="preserve">
<style type="text/css">
	.st0{fill:#2D353D;}
	.st1{font-family:'Roboto-Regular';}
	.st2{font-size:11.7191px;}
</style>
<g>
	<defs>
		<circle id="SVGID_1_" cx="37.9" cy="37.9" r="37.9"/>
	</defs>
	<use xlink:href="#SVGID_1_"  style="overflow:visible;fill:#EDD089;"/>
	<clipPath id="SVGID_2_">
		<use xlink:href="#SVGID_1_"  style="overflow:visible;"/>
	</clipPath>
</g>
<g>
	<g>
		<path class="st0" d="M96.1,84.9c-1-5.1-6.4-9.5-10.4-13.1c-2.1-1.9-2.9-4.5-2.8-7.3c0.1-2.3,0.2-4.5-1.1-6.6
			c-0.7-1.3,0.2-3.3,0.1-4.8c-0.1-1.8,0.4-3.6,0.5-5.5c0.1-1.7,0.9-3,2-4.1c0.4-0.5,0.7-3.6,1.5-5.2c0.5-1,2.6-7.8,2.5-10.9
			c-0.1-3.1-0.9-10.6-4.3-14.2c-1.1-1.8-5.8-9.1-17.2-8.8c-2,0.1-3.9-0.1-5.9-0.1C59,4.2,50.4,4,45.5,2.3c-1.6-0.6-2.5-1.5-2.3-0.5
			c0.2,0.9,1.3,1.3,0.5,1.2C43.3,3,41.1,1.7,41,1.6c-0.5-0.4-1.3-0.8,0.1,2.2c0.6,1.1,0.6,1.6,0,0.8c-0.6-0.7-1-1.6-1.5-2.3
			C38.6,0.9,38.3,1,38,1.5c-0.4,1.1-0.6,1.9-0.7,3c-0.2,1.8-1.1,5-0.6,6.8c0.3,1.1,0.2,3.2,0.6,3.9c0.5,0.8,0.9,1.1,0.4,1.6
			c-0.3,0.3-1,0.9-1.3,1.9c-0.5,1.6-0.7,2.2-1.2,3.8c-0.3,1.1-1.5,2.3-2,3.4c-1,2-1,1.7-0.9,4.1c0,0.9,0.4,3.2,0,4
			c-0.1,0.2-0.2,0.4-0.3,0.6c-0.6,1.1-1,2.1-1.7,3.5c-0.6,1.3-1.5,3.3-2.1,4.5c-0.6,1-1.3,1.9-1.9,2.9c-0.1,0.2-0.6,1.4,0.2,2
			c0.7,0.6,0.9,0.7,1.7,0.9c0.9,0.3,1.9,0.2,2.8,0.1c0.3,0,0.7-0.1,1-0.2c1-0.3,2-0.8,2,0.3c0,0.6-0.9,1.7-1.2,2.1
			c-0.2,0.2-0.3,1.6,0.5,2.8c0.6,0.6-0.3,1.9-0.8,3.3c-0.3,1-1,2.4,0,3.8c0.5,0.7,0.5,0.8,0,1.3c-0.5,0.6-0.5,1.2-0.2,1.8
			c0.2,0.6,0.9,2.1,1.2,2.6c0.5,0.8,1.1,1.4,0.4,2c-0.8,0.6-1,1.4-0.9,2.3c0.1,1.2,0.3,2.4,0.4,3.6c0.1,1.3,0.1,2.5,0.3,3.8
			c0.5,3.6,0.9,6.6-1.8,8.9c-0.3,0.2-0.6,0.4-0.9,0.7c-2.6,1.6-4,4.3-5.5,6.9c-0.5,0.9,0.2,1.2,1.3,1.2c1.2,0,1.8-1.6,2.6-2.6
			c0.9-1.1,1.4-2.4,2.3-3.4l0.2-0.3c0.5-0.6,1-1.2,1.5-1.7c0.7-0.8,1.3-1.2,2-2c0.1-0.1,0.6-0.8,0.5-1.7c-0.1-1.6-0.7-2.6-0.9-4.3
			c-0.1-1.3,0.1-2,0-3.3c-0.2-1.6-0.6-2.8-0.9-4.4c-0.2-1,0.2-1.7,0.8-2.4c0.3-0.3,0.9-0.4,1.2,0c1,1.1,1.6,1.7,1.9,3.1
			c0.5,2.1,0.8,4.3,1.4,6.3c0.5,1.5,1.4,3,1.2,4.5c-0.2,1.8-0.4,4.9,0.5,4.5c0.5,0,7.7-6.9,8.4-7.3c1.4-0.9,2.9-1.4,4.3-2.2
			c0.5-0.2,1.1-0.4,1.4-0.4c1.3-0.2,2.7-0.8,4.1-1c2.7-0.4,5-1,5.7-1.2c1.1-0.3,5.3-1.3,6.2-1.7c1.4-0.7,4.3-2.5,5.8-3.3
			c0.8-0.5,2.9-0.7,3.1-0.7c1-0.4,1.9-0.7,2.5,0c0.6,0.7,0.9,1.7,1.6,2.3c2.3,2.3,6.4,4.2,7.2,7.3c0.4,1.6,2.1,4.1,2.7,5.6
			c0.1,0.3,0.9,0.6,1.3,0.5C96.2,85.7,96.2,85.2,96.1,84.9z M33.7,27.4c0.4-1,1.3-1.9,1.7-2.9c0.3-0.8,0.7-1.3,0.9-2.2
			c0.4-1.3,0.6-2.1,1-3.4c0.2-0.5,1.3-1.7,1.6-2.1c1-1.7,1.8-3.2,3.5-4.3c0.9-0.6,2.1-0.5,3-0.3c2.1,0.6,4.1,0.3,6.2-0.2
			c2-0.5,3.7-0.1,5.6,0.7c1.1,0.5,1.7,1.5,0.8,2.3c-0.6,0.6-1.5,1.3-2.1,1.9c-1.2,1.3-2,1.8-2.5,2.6c-0.4,0.6-0.5,1.9-0.1,1.8
			c4.3-1.7,2.5-0.2-0.7,1.3c-0.3,0.2,0.4,0.8,1.4,1c1.7,0.2-0.3,0.4-0.1,1.2c0.6,1.4,2.3,1.6,2.4,2c0.1,0.2-1.9,1.2-3,1.7
			c-1.8,0.8-4.7,1.9-6.4,2.1C46,31,43.4,31.1,42.8,31c-0.8-0.1-2.1-0.5-3-0.6c-0.6-1.4-4.7-2.3-4.8,1.6c-0.1,1.4,0.2,1.8-0.7,1.7
			c-1.4-0.2-0.9-0.7-1-2.1C33.2,30.1,33.1,28.8,33.7,27.4z M40.7,33.7c0-1.2-0.9-2.4-0.4-2.2c1.5,0.4,3.3,0.4,3.4,0.7
			C44.1,32.6,40.7,34.4,40.7,33.7z M39.6,38.1c-2.1,0.9-3.8-3.7-3.4-5.7c0.2-1.1,0.5-1.8,1.6-1.8c1.1,0,2.1,3,0.9,3.7
			C39.5,35.4,40.5,37.3,39.6,38.1z M33.8,58.2c0.1-0.3,1.4-3,1.1-4.3c-0.4-0.7-0.8-1.7-0.5-1.8c0.7,0,1,0,1.3,0.2
			c0.8,0.7,1.5,0.6,1.9,0.6c0.4,0,0.7-0.1,1-0.2c0,0,0.1,0,0.1,0c0.2,0.2,0.3,0.7,0.5,0.7c0.1,0,0.2-0.2,0.2-0.4s-0.2-0.7-0.1-1.3
			c0-0.2,0.2-0.9-0.1-0.9c-0.2,0-0.5,0.3-0.6,0.9c0,0.4-0.8,0.4-1.5,0.3c-0.5-0.1-0.8-0.7-1.6-0.8c-0.7-0.1-1.3-0.1-1.6-0.2
			c-0.2-0.2-0.1-0.3,0.1-0.5c0.6-0.8,1-1.5,0.8-2.4c-0.1-0.4,0.5,0,0.8,0c1.4,0.1,1.3-0.9,1.4-2.2c0.1-1.1-0.6-1.3-0.8-1.1
			c-0.5,0.4,1.1,2.5-0.3,2.8c-0.4,0.1-1.7-0.8-2.2-0.8c-0.7-0.1-1.1,0-1.6,0.2c-0.7,0.3-1.2,0.7-1.9,0.8c-0.7,0.1-2-0.1-2.4-0.8
			c-0.7-1,0.1-2.4,0.9-3.5c1.1-1.6,1.3-2.8,2.4-5.1c0.2-0.5,0.6-1.2,1-1.9c0.3-0.6,0.6-1.1,0.8-1.5c0.1-0.2,0.6-0.9,0.7-1
			c0.4-0.1,0.9-0.1,1.3,0.4c0.6,0.6,0.5,2.1,1.6,3.3c0.5,0.6,1.9,1.2,2.6,1c0.7-0.1,1.4-0.9,1.6-2c0-0.4,0.1-1.7,0.5-2
			c1.3-0.8,2.7-1.8,4.1-2.5c2.9-1.3,8.3-0.3,8.4,0.2c0.1,0.3-0.5,0.4-0.5,0.7c0.8,1.7,5.4,1.7,6.7,1.1c1.6-0.7,2.2,1.3,3,0.3
			c1.8-2.3,4.3-1.8,4.7-0.6c0.2,0.5-0.1,1.7-0.2,2.2c-0.4,1.7-0.9,2.6-1.8,4.3c-1.9,3.4-5,2.8-4.6,4.3c0.2,0.6,1.2,1.7,4.5,1.4
			c0.6,0,1.2,0.1,1.6,0.6c0.4,0.5,0.8,1.1,1,1.5c-0.2,0.5-1.2,1.4-2.1,2.1c0,0-0.1,0-0.1,0c-5.1,1.4-9.1,2.1-14.5,3
			c-1.3,0.2-3.5,0.9-4.8,1c-0.7,0.1-2.7,0.1-3.3,0.5c-0.5,0.4-0.4,1.1-0.4,1.7c0.1,1.4-0.2,2.8-0.5,4.2c0,0,0,0,0,0
			c-1.5,0.4-2.8,0.7-3.8,0.8C36.3,61.9,33.4,60.5,33.8,58.2z M43,60.9c0.5-0.8,0.8-1.8,0.7-2.9c-0.1-0.8-0.1-1.6,0.6-1.9
			c0.5-0.2,2.2-0.6,3-0.6c2.1-0.2,3.4-0.9,5.5-1.2c4.5-0.8,7.9-1.2,11.5-2.4C62.7,52.6,50.6,58.5,43,60.9z M59.4,76.4
			c-1,0.1-2.2,0.6-2.6,0.7c-1,0.4-0.9-0.1-0.9-0.1c0.8-0.5,1.6-1,2.5-1.5c1.6-0.9,4.8-1.3,5.4-1.4c2.4-0.5,6.5-1.6,6.8-1
			C71.2,74.4,63.1,75.9,59.4,76.4z M80.6,67.8c-0.3,0.2-5.2,3-7.3,3.7c-2,0.6-3.9,0.7-6,1.1c-2.5,0.5-3.9,0.6-6.5,1.1
			c-1,0.2-2.5,0.8-3.4,1.3c-3.1,2-4.6,2.7-7.7,4.7c-0.3,0.2-3.9,3-6.2,5.3c0.3-1.1,0.6-4.5,0.5-5.5c-0.1-1.6-0.5-3.1-0.7-4.7
			c-0.4-2.3-0.3-2.4-0.9-4.7c-0.6-2.1-0.1-4.1,1.6-5.4c1.7-1.2,12.3-7.6,14.6-8.9c2.5-1.4,11.5-6.1,14.3-8.8
			c1.7-1.6,4.6-1.5,6.9-2.1c0.7-0.2,1.3,0.2,1.2,1c-0.1,1.1-0.2,2.2-0.4,3.3c-0.5,2.1-1.7,4.4-1,6.5c0.3,1.1,0.7,2.1,1.3,3.1
			c0.5,1,0.5,2,0.4,3c-0.1,1.3-0.1,2.7,0.1,3.9C81.6,66.9,81.3,67.4,80.6,67.8z"/>
		<path class="st0" d="M61.9,40.9c0.6,0.4,1.8-0.6,2.4-1.4c1-1.6,1.2-2,1.3-2.6c0.1-0.4-0.3-0.7-0.6-0.2c-0.6,1.6-1.1,1.8-2.1,2.4
			C61.5,39.6,61.2,40.4,61.9,40.9z"/>
		<path class="st0" d="M37.9,27.8c2.3-0.4,3.4-0.8,5.3-1.1c0.4,0,1.7-0.2,1.7-0.6c0-0.5-2.9-0.5-3.2-0.6c-1-0.1-2.6-0.2-3.7,0.2
			c-0.8,0.3-2.5,1.7-2.1,2.1C36.4,28.3,37.4,27.9,37.9,27.8z"/>
	</g>
</g>
<g>
	<path class="st0" d="M141.8,28.8v-0.9H140h-1.8h-3.4v0.9h0.1c1.1,0,1.7,1.2,1,2.1l-9.7,12.8l-8.1-12.9c-0.5-0.9,0.1-2,1.1-2h0.2
		v-0.9h-3.1h-5.5h-1.8v0.9h0.4c1.3,0,2.5,0.7,3.1,1.7l10.8,17.1l-11.2,14.8c-0.7,0.9-1.8,1.5-2.9,1.5h-0.6v0.9h1.7h1.8h3.1v-0.9
		c-1,0-1.5-1.1-0.9-1.9l9.9-13l8.2,13c0.5,0.9-0.1,2-1.1,2h-0.2v0.9h3.1h5.5h1.8v-0.9H141c-1.3,0-2.5-0.7-3.1-1.7L127,44.9
		l10.7-14.2C138.7,29.5,140.2,28.8,141.8,28.8z"/>
	<path class="st0" d="M191.1,32.4v27.7c0,2,1.7,3.7,3.7,3.7l0,0v0.9h-12.9v-0.9l0,0c2,0,3.7-1.7,3.7-3.7V31.6L172.1,59l-2.8,5.8
		h-0.1l-0.8-1.8l-14.1-31V62c0,1,0.8,1.8,1.8,1.8h1.8v0.9h-9.2v-0.9h1.8c1,0,1.8-0.8,1.8-1.8V32.4c0-2-1.7-3.7-3.7-3.7l0,0v-0.9h9.2
		l13.2,29.2l14.3-29.2l0,0h9.2v0.9h0C192.7,28.8,191.1,30.4,191.1,32.4z"/>
	<path class="st0" d="M401.7,63.9c-1.4,0-2.6-0.7-3.3-1.9L381,29.8l-1.1-2h0l-2.4,5.9l-5.1,12.7l-0.2,0.4l-5.9,14.7
		c-0.6,1.4-1.9,2.3-3.4,2.3h-1.1v0.9h8.3v-0.9h-0.9c-0.9,0-1.5-0.9-1.2-1.8l5.6-13.8h11.9l7.4,13.7c0.5,0.9-0.2,1.9-1.1,1.9h-0.1
		v0.9h10.2v-0.9H401.7z M374.3,46.4l4.3-10.8l5.8,10.8H374.3z"/>
	<path class="st0" d="M262.1,60.1V31.3c0-1.4,1.1-2.5,2.5-2.5l0,0v-0.9h-2.5h-3.7h-1.8h0h-2.8v0.9h0.3c1,0,1.6,1,1.2,1.9L240,61.8
		c-0.6,1.3-1.9,2.1-3.3,2.1h-1.8v0.9h3.7h1.8h2.7v-0.9h-0.2c-1,0-1.6-1-1.2-1.9l14.9-30.4v28.5c0,2-1.7,3.7-3.7,3.7l0,0v1h3.7h5.5
		h3.7v-1l0,0C263.8,63.8,262.1,62.1,262.1,60.1z"/>
	<path class="st0" d="M315.3,28.8v-0.9h-3.7H308h-1.8h-0.1h-3.7v0.9l1.1,0c1.1,0,2,0.9,2.1,2l0,0L283.4,60V32.5c0-2,1.7-3.7,3.7-3.7
		h0v-0.9h-3.7h-5.5h-3.7v0.9h0c2,0,3.7,1.7,3.7,3.7v27.7c0,2-1.7,3.7-3.7,3.7h0v0.9h3.7h3.7h1.8h0h3.7v-0.9l-1.3,0
		c-1,0-1.9-0.9-1.8-1.9l0,0l22.1-29.3v27.5c0,2-1.7,3.7-3.7,3.7h0v0.9h3.7h5.5h3.7v-0.9l0,0c-2,0-3.7-1.7-3.7-3.7V32.5
		C311.6,30.4,313.3,28.8,315.3,28.8L315.3,28.8z"/>
	<path class="st0" d="M360.2,32.2l0.4,1.1h0.9l-1.8-5.5h-0.9H344h-5.5h-14.8h-0.9h0v0.1l-1.8,5.5h0.9l0.4-1.1
		c0.5-1.5,1.9-2.6,3.5-2.6h12.7v30.5c0,2-1.7,3.7-3.7,3.7h0v0.9h3.7h5.5h3.7v-0.9l0,0c-2,0-3.7-1.7-3.7-3.7V29.7h12.7
		C358.3,29.7,359.7,30.7,360.2,32.2z"/>
	<path class="st0" d="M229.4,60.3c-0.5,1.5-1.9,2.6-3.5,2.6h-15.6V48.4h6.5c1,0,1.8,0.8,1.8,1.8V52h0.9v-3.6v-2v-3.6h-0.9v1.8
		c0,1-0.8,1.8-1.8,1.8h-6.5V29.7h15.5c1.6,0,3,1,3.5,2.6l0.4,1.1h0.9l-1.8-5.5h-0.1H228h-17.6h-5.5h-3.7v0.9l0,0
		c2,0,3.7,1.7,3.7,3.7v27.7c0,2-1.7,3.7-3.7,3.7l0,0v0.9h3.7h5.5H228h0.9h0.1l1.8-5.5h-0.9L229.4,60.3z"/>
</g>
<text transform="matrix(1 0 0 1 413.2811 34.0166)"><tspan x="0" y="0" class="st0 st1 st2">музей-</tspan><tspan x="0" y="15.4" class="st0 st1 st2">заповедник</tspan><tspan x="0" y="30.8" class="st0 st1 st2">А.С.Грибоедова</tspan></text>
</svg>
